<svg width="410" height="133" viewBox="0 0 410 133" fill="none" xmlns="http://www.w3.org/2000/svg">
<g clip-path="url(#clip0_288_1533)">
<path d="M55.8085 64.8965C58.3468 64.0677 58.8361 63.7295 61.4248 64.6907C63.8375 66.3798 65.8022 68.9162 67.8928 70.965C72.3764 75.3594 77.295 81.2764 81.9116 85.3408C83.4668 84.9328 85.9003 84.2511 87.2538 85.315C89.88 87.3795 93.418 90.9953 95.7449 93.4464C100.921 98.8983 107.273 104.614 112.236 110.126C102.377 121.811 85.4884 130.278 70.2577 131.585C58.3354 132.697 46.3403 130.444 35.6356 125.081C34.4682 124.507 29.9867 122.447 29.6488 121.476C30.5075 119.149 43.46 107.007 45.6418 103.732C45.0946 100.889 43.834 98.32 43.646 95.4813C44.934 93.8841 46.5328 92.2749 47.9945 90.8187C53.0464 85.7849 57.908 80.2888 63.257 75.5859C61.8979 73.8736 60.6637 72.2384 58.7043 71.1599C55.9777 72.614 51.4896 77.8058 49.0855 80.1917L24.2886 104.787C22.0729 106.943 18.5809 110.891 16.4982 112.65C14.8882 111.563 13.5735 109.934 12.3483 108.435C14.2233 106 16.9607 103.57 19.1945 101.377L29.373 91.275C38.2143 82.4862 46.6676 73.3983 55.8085 64.8965Z" fill="#FEFEFE"/>
<path d="M153.3 49.4129C158.404 49.3122 172.008 48.8056 176.221 50.1619C179.095 51.0875 181.633 52.9915 183.013 55.7127C184.37 58.3908 184.694 61.7559 183.733 64.6131C182.754 67.5238 180.825 69.2536 178.143 70.5936C178.614 70.7741 179.083 70.9605 179.549 71.1522C182.244 72.2901 184.381 74.4457 185.495 77.1502C186.87 80.5605 186.466 84.2463 185.059 87.5672C184.483 88.6537 183.75 89.6498 182.884 90.5233C181.351 92.0402 179.439 93.1183 177.348 93.6444C174.226 94.4432 169.858 94.2058 166.539 94.2254C162.126 94.2696 157.713 94.2799 153.3 94.2547C153.18 87.9472 153.269 81.3165 153.253 74.9871C153.197 66.4626 153.212 57.9372 153.3 49.4129ZM173.786 75.3944C170.623 74.4486 164.929 74.8908 161.389 74.9432C161.395 78.9761 161.35 83.1283 161.435 87.1512C165.497 87.2162 173.337 88.1614 176.157 85.3162C178.823 81.9671 178.27 76.7353 173.786 75.3944ZM175.979 61.5809C175.648 56.562 170.762 56.5674 166.907 56.6727C165.168 56.7203 163.211 56.7589 161.462 56.7469C161.408 60.4121 161.385 64.0785 161.394 67.744C165.3 67.7931 171.596 68.5363 174.408 66.2957C175.763 64.7518 176.113 63.6021 175.979 61.5809Z" fill="#FEFEFE"/>
<path d="M10.4407 97.4907C8.86225 95.7432 7.60014 93.4393 6.57289 91.3218C-5.63994 66.1483 0.894783 36.0592 21.5333 17.4666C34.0073 6.10936 50.5012 0.198507 67.3535 1.04612C83.966 1.93013 99.9642 9.91445 111.048 22.2523C117.6 29.5854 122.408 38.305 125.11 47.7581C124.952 47.8326 124.686 47.9158 124.511 47.9764C123.607 47.281 121.953 45.7786 121.25 45.3039L120.781 45.5143C120.324 44.9555 121.023 44.3699 120.615 43.5856C119.936 43.4171 119.387 43.247 118.721 43.4477C118.297 43.8762 118.06 45.724 118.019 46.3974C103.094 5.75343 51.8495 -6.25044 22.0282 26.3507C17.9025 30.8608 14.6979 35.4918 12.1366 41.0464C5.86052 54.5215 5.18921 69.9346 10.2699 83.9038C11.6048 87.5161 13.0642 90.3299 14.8781 93.6801C13.3841 95.2449 12.3621 96.4393 10.4407 97.4907Z" fill="#4074FC"/>
<path d="M118.535 36.8689L119.14 37.2481C119.412 37.8415 119.301 37.7593 119.166 38.5258C118.611 38.7019 118.428 38.5646 118.088 38.1876C118.098 37.3364 118.023 37.6562 118.535 36.8689Z" fill="#625FFA"/>
<path d="M118.541 36.2917L118.718 36.3785C118.606 36.9103 118.075 37.2513 117.616 37.6868C117.66 36.6741 117.685 36.7217 118.541 36.2917Z" fill="#625FFA"/>
<path d="M217.982 61.4038C222.076 61.4688 224.48 63.1407 227.171 65.9165L227.187 62.1606C229.725 62.0831 232.263 62.076 234.8 62.1392C234.958 70.2905 234.726 78.5457 234.828 86.7017C234.816 91.8652 235.244 97.118 232.279 101.671C227.841 108.487 216.191 109.428 209.708 105.263C206.866 103.438 205.312 100.505 204.674 97.2231C207.22 96.9018 209.757 96.5137 212.285 96.0601C213.313 99.6571 215.958 101.19 219.568 100.967C226.521 100.538 227.139 95.2965 226.861 89.8823C224.839 91.9691 222.368 93.3224 219.459 93.6587C215.681 94.0714 211.895 92.9861 208.912 90.6372C205.61 87.9914 203.861 84.0241 203.459 79.8745C202.549 70.5199 207.108 62.45 217.01 61.438C217.334 61.411 217.658 61.4 217.982 61.4038ZM222.426 69.3638C220.721 68.6083 219.305 68.6309 217.487 68.7983C215.485 69.4031 213.424 70.5368 212.574 72.5151C209.526 79.6175 212.591 87.3126 221.062 86.269C221.804 85.9934 222.646 85.6908 223.308 85.2681C228.643 81.8554 228.421 72.0208 222.426 69.3638Z" fill="#FEFEFE"/>
<path d="M279.275 61.4266C282.983 61.1836 287.24 62.1623 289.893 64.9012C291.333 66.3967 292.354 68.2462 292.847 70.2625C293.505 72.9336 293.311 77.4126 293.319 80.2909C293.359 84.9428 293.341 89.5952 293.267 94.2469C290.788 94.2733 288.44 94.2935 285.956 94.204L286.009 90.4627C282.427 95.3288 276.573 96.1312 270.966 93.9168C268.572 92.9716 267.145 90.8547 266.291 88.4715C266.033 87.5006 265.831 86.3434 265.825 85.3407C265.753 74.276 278.206 74.982 285.837 74.9149C285.805 73.3814 285.82 71.6471 284.847 70.4041C281.637 66.3172 275.322 67.3426 274.276 72.6629C272.065 72.1957 269.077 71.8413 266.791 71.5038C268.713 64.5121 272.306 62.2311 279.275 61.4266ZM282.539 80.4461C280.073 80.5143 276.496 80.3215 274.778 82.3338C272.548 84.9495 274.02 87.8951 277.103 88.6112C282.431 89.0739 285.346 86.6509 285.778 81.2674C285.802 80.9682 285.816 80.6682 285.822 80.368L282.539 80.4461Z" fill="url(#paint0_linear_288_1533)"/>
<path d="M371.197 61.437C379.048 60.837 385.086 66.4477 386.254 73.979C386.612 76.293 386.586 78.0525 386.556 80.3902C379.138 80.6132 371.573 80.3611 364.122 80.4888C364.266 81.567 364.42 82.5423 364.822 83.563C365.574 85.495 367.074 87.0429 368.981 87.856C373.167 89.6346 377.128 87.9316 378.868 83.7779C380.024 84.1956 381.753 84.5986 382.978 84.9224L385.912 85.771C383.048 91.9571 380.736 94.1196 373.636 94.9663C357.476 96.8927 351.854 77.6386 360.369 66.6265C363.069 63.1347 366.846 61.8494 371.197 61.437ZM378.933 74.8335C378.023 69.8785 375.497 67.5246 370.267 68.1909C366.708 69.2621 364.79 71.1859 364.408 74.9634C367.4 74.9092 370.392 74.8743 373.386 74.8599C374.649 74.8637 377.816 74.9552 378.933 74.8335Z" fill="url(#paint1_linear_288_1533)"/>
<path d="M327.993 49.2346C330.595 49.2034 333.196 49.223 335.798 49.2935C335.634 57.7127 336.018 66.5406 335.746 74.8445C336.552 73.7464 338.668 71.5208 339.637 70.4419L347.083 62.1552C350.304 62.1249 353.58 62.161 356.805 62.1662C353.176 65.3378 347.658 71.9885 343.871 75.7601C346.707 79.4707 349.562 83.6112 352.264 87.4276C353.952 89.6727 355.611 91.9387 357.243 94.2252C355.325 94.2776 348.182 94.9249 347.163 93.5234C344.309 89.593 341.881 84.958 338.848 81.154C337.724 82.2471 336.804 83.1537 335.766 84.3334C335.634 87.2837 335.758 91.2049 335.766 94.2272C333.266 94.3083 330.513 94.26 327.993 94.2676C327.825 88.3854 327.959 81.9657 327.951 76.0535C327.903 67.1139 327.917 58.174 327.993 49.2346Z" fill="url(#paint2_linear_288_1533)"/>
<path d="M55.8082 64.8964C55.5369 54.4005 55.909 43.6834 55.7753 33.1734C55.7471 30.9576 58.4027 29.6904 60.1751 30.8661C60.99 31.4067 61.1044 32.5134 61.2752 33.4019C63.6633 33.3023 67.1834 33.0905 69.4277 33.6919C72.3632 34.4884 74.8097 37.1388 77.9161 37.3847C80.3994 37.581 83.1412 36.979 85.4355 36.0723C85.9593 35.8655 86.54 35.4883 87.1009 35.5155L87.3315 35.9322C87.3901 37.9979 84.3669 41.9048 83.1004 43.7396L83.1586 43.7968C83.6006 44.2227 84.0879 44.6516 84.4747 45.0162C85.4993 45.982 89.0633 46.9022 87.8238 48.7322C87.2381 49.597 85.4407 50.256 84.5685 50.5884C80.1736 52.2759 76.0579 52.5847 71.8306 50.2786C68.0205 48.2001 65.3671 48.2981 61.3766 49.3462C61.4815 54.3566 61.1864 59.7469 61.4245 64.6905C58.8359 63.7293 58.3465 64.0675 55.8082 64.8964Z" fill="#3877FD"/>
<path d="M238.57 49.374L269.966 49.3882L269.962 56.7277L258.582 56.6863L258.506 83.3963L258.43 94.2299L250.361 94.2879C250.151 81.8983 250.383 69.2103 250.311 56.7751C246.399 56.7699 242.488 56.7271 238.576 56.6469L238.57 49.374Z" fill="url(#paint3_linear_288_1533)"/>
<path d="M308.617 61.4109C316.176 60.8772 320.958 63.3217 322.885 70.7695C321.198 71.2342 318.776 71.455 316.996 71.6143C315.02 71.7912 315.452 70.0707 314.074 68.8503C312.961 67.6343 311.731 67.9075 310.455 67.7258C308.633 67.4668 305.326 69.4725 305.754 71.3241C306.529 74.6778 313.373 74.897 316.092 75.9729C317.856 76.5054 319.33 77.2797 320.772 78.4193C324.479 81.3529 324.389 87.5303 321.432 91.0296C318.782 94.1646 314.892 94.7872 310.947 95.0728C304.004 94.9085 298.49 92.5101 297.193 85.1678C299.22 84.7203 302.624 84.4381 304.704 84.256C305.056 85.7844 305.332 86.6041 306.623 87.5683C308.859 89.2504 313.369 89.5994 315.19 87.1355C316.418 85.5646 316.094 83.4825 314.18 82.683C309.355 80.6967 304.11 80.9805 300.174 77.0262C297.023 74.0486 297.589 69.3538 299.858 66.0295C301.896 63.0435 305.242 61.9981 308.617 61.4109Z" fill="url(#paint4_linear_288_1533)"/>
<path d="M118.019 46.3971C118.06 45.7237 118.297 43.8759 118.721 43.4474C119.387 43.2467 119.936 43.4168 120.615 43.5853C121.023 44.3696 120.324 44.9552 120.781 45.5141L121.249 45.3036C121.952 45.7783 123.607 47.2807 124.511 47.9761C124.686 47.9155 124.951 47.8324 125.11 47.7578C126.746 54.3898 127.762 61.9974 127.149 68.83C126.3 78.2788 123.076 90.7331 116.804 98.1112C115.085 97.0697 113.9 95.8273 112.52 94.4084C113.217 93.3181 113.863 92.1962 114.456 91.0459C122.038 76.6792 122.763 61.7292 118.019 46.3971Z" fill="#625FFA"/>
<path d="M405.093 61.5955C406.397 61.485 407.503 61.556 408.785 61.7714C408.833 64.223 408.829 66.6757 408.775 69.1273C398.146 67.2693 398.588 76.056 398.578 83.548L398.536 94.2731C397.384 94.2987 391.733 94.5229 391.095 94.0912C390.961 90.5789 391.107 86.9328 391.079 83.4001C390.969 76.3472 390.961 69.293 391.057 62.2397C393.533 62.177 396.011 62.1566 398.486 62.179L398.298 66.8657C398.402 66.6683 398.512 66.474 398.626 66.2829C400.416 63.3076 401.844 62.4132 405.093 61.5955Z" fill="url(#paint5_linear_288_1533)"/>
<path d="M190.883 62.1322C193.52 62.0723 196.158 62.0926 198.794 62.193C198.911 72.8687 198.933 83.5452 198.862 94.2214C196.239 94.2757 193.547 94.2158 190.918 94.1872C190.819 92.7021 190.776 91.0174 190.803 89.5288C190.973 80.4402 190.608 71.2102 190.883 62.1322Z" fill="#FEFEFE"/>
<path d="M194.26 48.0493C196.903 47.6631 199.369 49.4604 199.811 52.0933C200.251 54.7262 198.505 57.2284 195.881 57.7238C194.134 58.0536 192.345 57.4134 191.204 56.0503C190.064 54.6872 189.75 52.8142 190.384 51.1541C191.018 49.4937 192.501 48.3061 194.26 48.0493Z" fill="#FEFEFE"/>
</g>
<defs>
<linearGradient id="paint0_linear_288_1533" x1="272.014" y1="57.8748" x2="291.113" y2="92.5994" gradientUnits="userSpaceOnUse">
<stop stop-color="#4477FA"/>
<stop offset="1" stop-color="#5F69FD"/>
</linearGradient>
<linearGradient id="paint1_linear_288_1533" x1="361.141" y1="61.3479" x2="381.398" y2="98.3882" gradientUnits="userSpaceOnUse">
<stop stop-color="#7567FB"/>
<stop offset="1" stop-color="#6D4CF7"/>
</linearGradient>
<linearGradient id="paint2_linear_288_1533" x1="327.574" y1="53.2449" x2="351.881" y2="100.703" gradientUnits="userSpaceOnUse">
<stop stop-color="#4A6AF3"/>
<stop offset="1" stop-color="#7563FA"/>
</linearGradient>
<linearGradient id="paint3_linear_288_1533" x1="241.339" y1="49.7725" x2="258.702" y2="87.3913" gradientUnits="userSpaceOnUse">
<stop stop-color="#3F75FD"/>
<stop offset="1" stop-color="#5467FA"/>
</linearGradient>
<linearGradient id="paint4_linear_288_1533" x1="300.951" y1="56.7179" x2="324.101" y2="99.5455" gradientUnits="userSpaceOnUse">
<stop stop-color="#476EFB"/>
<stop offset="1" stop-color="#6B58F9"/>
</linearGradient>
<linearGradient id="paint5_linear_288_1533" x1="391.236" y1="61.3473" x2="403.969" y2="98.9661" gradientUnits="userSpaceOnUse">
<stop stop-color="#735BF5"/>
<stop offset="1" stop-color="#764CF8"/>
</linearGradient>
<clipPath id="clip0_288_1533">
<rect width="409.549" height="132.715" fill="white"/>
</clipPath>
</defs>
</svg>
